<svg width="140" height="140" viewBox="0 0 140 140" fill="none" xmlns="http://www.w3.org/2000/svg">
<rect width="140" height="140" fill="url(#paint0_linear_608_4482)"/>
<g filter="url(#filter0_f_608_4482)">
<path fill-rule="evenodd" clip-rule="evenodd" d="M55.654 37.2761C55 38.5595 55 40.2397 55 43.6V54.4C55 57.7603 55 59.4405 55.654 60.7239C56.2292 61.8529 57.1471 62.7708 58.2761 63.346C59.5595 64 61.2397 64 64.6 64H75.4C78.7603 64 80.4405 64 81.7239 63.346C82.8529 62.7708 83.7708 61.8529 84.346 60.7239C85 59.4405 85 57.7603 85 54.4V43.6C85 40.2397 85 38.5595 84.346 37.2761C83.7708 36.1471 82.8529 35.2292 81.7239 34.654C80.4405 34 78.7603 34 75.4 34H64.6C61.2397 34 59.5595 34 58.2761 34.654C57.1471 35.2292 56.2292 36.1471 55.654 37.2761ZM55.654 79.2761C55 80.5595 55 82.2397 55 85.6V96.4C55 99.7603 55 101.44 55.654 102.724C56.2292 103.853 57.1471 104.771 58.2761 105.346C59.5595 106 61.2397 106 64.6 106H75.4C78.7603 106 80.4405 106 81.7239 105.346C82.8529 104.771 83.7708 103.853 84.346 102.724C85 101.44 85 99.7603 85 96.4V85.6C85 82.2397 85 80.5595 84.346 79.2761C83.7708 78.1471 82.8529 77.2292 81.7239 76.654C80.4405 76 78.7603 76 75.4 76H64.6C61.2397 76 59.5595 76 58.2761 76.654C57.1471 77.2292 56.2292 78.1471 55.654 79.2761Z" fill="url(#paint1_linear_608_4482)"/>
</g>
<mask id="path-2-inside-1_608_4482" fill="white">
<path d="M55 43.6C55 40.2397 55 38.5595 55.654 37.2761C56.2292 36.1471 57.1471 35.2292 58.2761 34.654C59.5595 34 61.2397 34 64.6 34H75.4C78.7603 34 80.4405 34 81.7239 34.654C82.8529 35.2292 83.7708 36.1471 84.346 37.2761C85 38.5595 85 40.2397 85 43.6V54.4C85 57.7603 85 59.4405 84.346 60.7239C83.7708 61.8529 82.8529 62.7708 81.7239 63.346C80.4405 64 78.7603 64 75.4 64H64.6C61.2397 64 59.5595 64 58.2761 63.346C57.1471 62.7708 56.2292 61.8529 55.654 60.7239C55 59.4405 55 57.7603 55 54.4V43.6Z"/>
</mask>
<path d="M55 43.6C55 40.2397 55 38.5595 55.654 37.2761C56.2292 36.1471 57.1471 35.2292 58.2761 34.654C59.5595 34 61.2397 34 64.6 34H75.4C78.7603 34 80.4405 34 81.7239 34.654C82.8529 35.2292 83.7708 36.1471 84.346 37.2761C85 38.5595 85 40.2397 85 43.6V54.4C85 57.7603 85 59.4405 84.346 60.7239C83.7708 61.8529 82.8529 62.7708 81.7239 63.346C80.4405 64 78.7603 64 75.4 64H64.6C61.2397 64 59.5595 64 58.2761 63.346C57.1471 62.7708 56.2292 61.8529 55.654 60.7239C55 59.4405 55 57.7603 55 54.4V43.6Z" fill="url(#paint2_linear_608_4482)"/>
<path d="M58.2761 63.346L59.184 61.564L58.2761 63.346ZM55.654 60.7239L53.8719 61.6319L55.654 60.7239ZM84.346 60.7239L82.564 59.816L84.346 60.7239ZM81.7239 63.346L80.816 61.564L81.7239 63.346ZM84.346 37.2761L82.564 38.184L84.346 37.2761ZM58.2761 34.654L57.3681 32.8719L58.2761 34.654ZM55.654 37.2761L53.8719 36.3681L55.654 37.2761ZM64.6 36H75.4V32H64.6V36ZM83 43.6V54.4H87V43.6H83ZM75.4 62H64.6V66H75.4V62ZM57 54.4V43.6H53V54.4H57ZM64.6 62C62.8868 62 61.7223 61.9984 60.8221 61.9249C59.9452 61.8533 59.4968 61.7234 59.184 61.564L57.3681 65.1281C58.3387 65.6226 59.3722 65.8198 60.4963 65.9116C61.5972 66.0016 62.9528 66 64.6 66V62ZM53 54.4C53 56.0472 52.9984 57.4028 53.0884 58.5037C53.1802 59.6278 53.3774 60.6613 53.8719 61.6319L57.436 59.816C57.2766 59.5032 57.1467 59.0548 57.0751 58.1779C57.0016 57.2777 57 56.1132 57 54.4H53ZM59.184 61.564C58.4314 61.1805 57.8195 60.5686 57.436 59.816L53.8719 61.6319C54.6389 63.1372 55.8628 64.3611 57.3681 65.1281L59.184 61.564ZM83 54.4C83 56.1132 82.9984 57.2777 82.9249 58.1779C82.8533 59.0548 82.7234 59.5032 82.564 59.816L86.1281 61.6319C86.6226 60.6613 86.8198 59.6278 86.9116 58.5037C87.0016 57.4028 87 56.0472 87 54.4H83ZM75.4 66C77.0472 66 78.4028 66.0016 79.5037 65.9116C80.6278 65.8198 81.6613 65.6226 82.6319 65.1281L80.816 61.564C80.5032 61.7234 80.0548 61.8533 79.1779 61.9249C78.2777 61.9984 77.1132 62 75.4 62V66ZM82.564 59.816C82.1805 60.5686 81.5686 61.1805 80.816 61.564L82.6319 65.1281C84.1372 64.3611 85.3611 63.1372 86.1281 61.6319L82.564 59.816ZM75.4 36C77.1132 36 78.2777 36.0016 79.1779 36.0751C80.0548 36.1467 80.5032 36.2766 80.816 36.436L82.6319 32.8719C81.6613 32.3774 80.6278 32.1802 79.5037 32.0884C78.4028 31.9984 77.0472 32 75.4 32V36ZM87 43.6C87 41.9528 87.0016 40.5972 86.9116 39.4963C86.8198 38.3722 86.6226 37.3387 86.1281 36.3681L82.564 38.184C82.7234 38.4968 82.8533 38.9452 82.9249 39.8221C82.9984 40.7223 83 41.8868 83 43.6H87ZM80.816 36.436C81.5686 36.8195 82.1805 37.4314 82.564 38.184L86.1281 36.3681C85.3611 34.8628 84.1372 33.6389 82.6319 32.8719L80.816 36.436ZM64.6 32C62.9528 32 61.5972 31.9984 60.4963 32.0884C59.3722 32.1802 58.3387 32.3774 57.3681 32.8719L59.184 36.436C59.4968 36.2766 59.9452 36.1467 60.8221 36.0751C61.7223 36.0016 62.8868 36 64.6 36V32ZM57 43.6C57 41.8868 57.0016 40.7223 57.0751 39.8221C57.1467 38.9452 57.2766 38.4968 57.436 38.184L53.8719 36.3681C53.3774 37.3387 53.1802 38.3722 53.0884 39.4963C52.9984 40.5972 53 41.9528 53 43.6H57ZM57.3681 32.8719C55.8628 33.6389 54.6389 34.8628 53.8719 36.3681L57.436 38.184C57.8195 37.4314 58.4314 36.8195 59.184 36.436L57.3681 32.8719Z" fill="url(#paint3_linear_608_4482)" mask="url(#path-2-inside-1_608_4482)"/>
<mask id="path-4-inside-2_608_4482" fill="white">
<path d="M55 85.6C55 82.2397 55 80.5595 55.654 79.2761C56.2292 78.1471 57.1471 77.2292 58.2761 76.654C59.5595 76 61.2397 76 64.6 76H75.4C78.7603 76 80.4405 76 81.7239 76.654C82.8529 77.2292 83.7708 78.1471 84.346 79.2761C85 80.5595 85 82.2397 85 85.6V96.4C85 99.7603 85 101.44 84.346 102.724C83.7708 103.853 82.8529 104.771 81.7239 105.346C80.4405 106 78.7603 106 75.4 106H64.6C61.2397 106 59.5595 106 58.2761 105.346C57.1471 104.771 56.2292 103.853 55.654 102.724C55 101.44 55 99.7603 55 96.4V85.6Z"/>
</mask>
<path d="M55 85.6C55 82.2397 55 80.5595 55.654 79.2761C56.2292 78.1471 57.1471 77.2292 58.2761 76.654C59.5595 76 61.2397 76 64.6 76H75.4C78.7603 76 80.4405 76 81.7239 76.654C82.8529 77.2292 83.7708 78.1471 84.346 79.2761C85 80.5595 85 82.2397 85 85.6V96.4C85 99.7603 85 101.44 84.346 102.724C83.7708 103.853 82.8529 104.771 81.7239 105.346C80.4405 106 78.7603 106 75.4 106H64.6C61.2397 106 59.5595 106 58.2761 105.346C57.1471 104.771 56.2292 103.853 55.654 102.724C55 101.44 55 99.7603 55 96.4V85.6Z" fill="url(#paint4_linear_608_4482)"/>
<path d="M58.2761 105.346L59.184 103.564L58.2761 105.346ZM55.654 102.724L53.8719 103.632L55.654 102.724ZM84.346 102.724L82.564 101.816L84.346 102.724ZM81.7239 105.346L80.816 103.564L81.7239 105.346ZM81.7239 76.654L82.6319 74.8719L81.7239 76.654ZM84.346 79.2761L82.564 80.184L84.346 79.2761ZM58.2761 76.654L57.3681 74.8719L58.2761 76.654ZM64.6 78H75.4V74H64.6V78ZM83 85.6V96.4H87V85.6H83ZM75.4 104H64.6V108H75.4V104ZM57 96.4V85.6H53V96.4H57ZM64.6 104C62.8868 104 61.7223 103.998 60.8221 103.925C59.9452 103.853 59.4968 103.723 59.184 103.564L57.3681 107.128C58.3387 107.623 59.3722 107.82 60.4963 107.912C61.5972 108.002 62.9528 108 64.6 108V104ZM53 96.4C53 98.0472 52.9984 99.4028 53.0884 100.504C53.1802 101.628 53.3774 102.661 53.8719 103.632L57.436 101.816C57.2766 101.503 57.1467 101.055 57.0751 100.178C57.0016 99.2777 57 98.1132 57 96.4H53ZM59.184 103.564C58.4314 103.181 57.8195 102.569 57.436 101.816L53.8719 103.632C54.6389 105.137 55.8628 106.361 57.3681 107.128L59.184 103.564ZM83 96.4C83 98.1132 82.9984 99.2777 82.9249 100.178C82.8533 101.055 82.7234 101.503 82.564 101.816L86.1281 103.632C86.6226 102.661 86.8198 101.628 86.9116 100.504C87.0016 99.4028 87 98.0472 87 96.4H83ZM75.4 108C77.0472 108 78.4028 108.002 79.5037 107.912C80.6278 107.82 81.6613 107.623 82.6319 107.128L80.816 103.564C80.5032 103.723 80.0548 103.853 79.1779 103.925C78.2777 103.998 77.1132 104 75.4 104V108ZM82.564 101.816C82.1805 102.569 81.5686 103.181 80.816 103.564L82.6319 107.128C84.1372 106.361 85.3611 105.137 86.1281 103.632L82.564 101.816ZM75.4 78C77.1132 78 78.2777 78.0016 79.1779 78.0751C80.0548 78.1467 80.5032 78.2766 80.816 78.436L82.6319 74.8719C81.6613 74.3774 80.6278 74.1802 79.5037 74.0884C78.4028 73.9984 77.0472 74 75.4 74V78ZM87 85.6C87 83.9528 87.0016 82.5972 86.9116 81.4963C86.8198 80.3722 86.6226 79.3387 86.1281 78.3681L82.564 80.184C82.7234 80.4968 82.8533 80.9452 82.9249 81.8221C82.9984 82.7223 83 83.8868 83 85.6H87ZM80.816 78.436C81.5686 78.8195 82.1805 79.4314 82.564 80.184L86.1281 78.3681C85.3611 76.8628 84.1372 75.6389 82.6319 74.8719L80.816 78.436ZM64.6 74C62.9528 74 61.5972 73.9984 60.4963 74.0884C59.3722 74.1802 58.3387 74.3774 57.3681 74.8719L59.184 78.436C59.4968 78.2766 59.9452 78.1467 60.8221 78.0751C61.7223 78.0016 62.8868 78 64.6 78V74ZM57 85.6C57 83.8868 57.0016 82.7223 57.0751 81.8221C57.1467 80.9452 57.2766 80.4968 57.436 80.184L53.8719 78.3681C53.3774 79.3387 53.1802 80.3722 53.0884 81.4963C52.9984 82.5972 53 83.9528 53 85.6H57ZM57.3681 74.8719C55.8628 75.6389 54.6389 76.8628 53.8719 78.3681L57.436 80.184C57.8195 79.4314 58.4314 78.8195 59.184 78.436L57.3681 74.8719Z" fill="url(#paint5_linear_608_4482)" mask="url(#path-4-inside-2_608_4482)"/>
<defs>
<filter id="filter0_f_608_4482" x="47" y="26" width="46" height="88" filterUnits="userSpaceOnUse" color-interpolation-filters="sRGB">
<feFlood flood-opacity="0" result="BackgroundImageFix"/>
<feBlend mode="normal" in="SourceGraphic" in2="BackgroundImageFix" result="shape"/>
<feGaussianBlur stdDeviation="4" result="effect1_foregroundBlur_608_4482"/>
</filter>
<linearGradient id="paint0_linear_608_4482" x1="70" y1="0" x2="70" y2="140" gradientUnits="userSpaceOnUse">
<stop stop-color="#262626"/>
<stop offset="1" stop-color="#1A1A1A"/>
</linearGradient>
<linearGradient id="paint1_linear_608_4482" x1="70" y1="36" x2="70" y2="104" gradientUnits="userSpaceOnUse">
<stop stop-color="white"/>
<stop offset="1" stop-color="white" stop-opacity="0"/>
</linearGradient>
<linearGradient id="paint2_linear_608_4482" x1="70" y1="34" x2="70" y2="64" gradientUnits="userSpaceOnUse">
<stop stop-color="white"/>
<stop offset="1" stop-color="#CCCCCC"/>
</linearGradient>
<linearGradient id="paint3_linear_608_4482" x1="70" y1="34" x2="70" y2="64" gradientUnits="userSpaceOnUse">
<stop stop-color="white"/>
<stop offset="1" stop-color="white" stop-opacity="0"/>
</linearGradient>
<linearGradient id="paint4_linear_608_4482" x1="70" y1="76" x2="70" y2="106" gradientUnits="userSpaceOnUse">
<stop stop-color="#CCCCCC"/>
<stop offset="1" stop-color="#808080"/>
</linearGradient>
<linearGradient id="paint5_linear_608_4482" x1="70" y1="34" x2="70" y2="106" gradientUnits="userSpaceOnUse">
<stop stop-color="white"/>
<stop offset="1" stop-color="white" stop-opacity="0"/>
</linearGradient>
</defs>
</svg>
