<svg width="180" height="80" viewBox="0 0 180 80" fill="none" xmlns="http://www.w3.org/2000/svg">
<g clip-path="url(#clip0_126_2679)">
<g filter="url(#filter0_f_126_2679)">
<path d="M8.58134 12.6482C8.58134 11.5281 8.58134 10.9681 8.79933 10.5402C8.99108 10.1639 9.29704 9.85794 9.67336 9.66619C10.1012 9.44821 10.6612 9.44821 11.7813 9.44821H28.7413C30.9493 9.44821 33.0133 9.80821 34.9333 10.5282C36.8533 11.2002 38.5093 12.1602 39.9013 13.4082C41.3413 14.6082 42.4693 16.0242 43.2853 17.6562C44.1013 19.2882 44.5093 21.0402 44.5093 22.9122C44.5093 25.6482 43.8373 27.9522 42.4933 29.8242C41.1973 31.6482 39.5653 33.0402 37.5973 34.0002V34.5762C40.2373 35.5362 42.3493 37.0482 43.9333 39.1122C45.5653 41.1282 46.3813 43.6482 46.3813 46.6722C46.3813 48.8802 45.9253 50.8722 45.0133 52.6482C44.1493 54.3762 42.9493 55.8642 41.4133 57.1122C39.8773 58.3602 38.0773 59.3202 36.0133 59.9922C33.9973 60.6642 31.8133 61.0002 29.4613 61.0002H11.7813C10.6612 61.0002 10.1012 61.0002 9.67336 60.7822C9.29704 60.5905 8.99108 60.2845 8.79933 59.9082C8.58134 59.4804 8.58134 58.9203 8.58134 57.8002V12.6482ZM28.0213 30.4722C30.2773 30.4722 32.0053 29.8722 33.2053 28.6722C34.4533 27.4242 35.0773 25.9602 35.0773 24.2802C35.0773 22.6002 34.4773 21.1602 33.2773 19.9602C32.0773 18.7602 30.4213 18.1602 28.3093 18.1602H18.3013V30.4722H28.0213ZM29.1013 52.0722C31.5493 52.0722 33.4213 51.4722 34.7173 50.2722C36.0133 49.0242 36.6613 47.4402 36.6613 45.5202C36.6613 43.6002 35.9893 42.0162 34.6453 40.7682C33.3493 39.4722 31.4053 38.8242 28.8133 38.8242H18.3013V52.0722H29.1013Z" fill="url(#paint0_linear_126_2679)"/>
<path d="M57.3506 61.0002C56.2305 61.0002 55.6704 61.0002 55.2426 60.7822C54.8663 60.5905 54.5603 60.2845 54.3686 59.9082C54.1506 59.4804 54.1506 58.9203 54.1506 57.8002V12.6482C54.1506 11.5281 54.1506 10.9681 54.3686 10.5402C54.5603 10.1639 54.8663 9.85794 55.2426 9.66619C55.6704 9.44821 56.2305 9.44821 57.3506 9.44821H60.3826C61.5027 9.44821 62.0627 9.44821 62.4906 9.66619C62.8669 9.85794 63.1729 10.1639 63.3646 10.5402C63.5826 10.9681 63.5826 11.5281 63.5826 12.6482V57.8002C63.5826 58.9203 63.5826 59.4804 63.3646 59.9082C63.1729 60.2845 62.8669 60.5905 62.4906 60.7822C62.0627 61.0002 61.5027 61.0002 60.3826 61.0002H57.3506Z" fill="url(#paint1_linear_126_2679)"/>
<path d="M89.4508 24.5682C92.1868 24.5682 94.6828 25.0482 96.9388 26.0082C99.2428 26.9202 101.211 28.2162 102.843 29.8962C104.523 31.5282 105.819 33.4962 106.731 35.8002C107.691 38.1042 108.171 40.6242 108.171 43.3602C108.171 46.0962 107.691 48.6162 106.731 50.9202C105.819 53.2242 104.523 55.2162 102.843 56.8962C101.211 58.5282 99.2428 59.8242 96.9388 60.7842C94.6828 61.6962 92.1868 62.1522 89.4508 62.1522C86.7148 62.1522 84.1948 61.6962 81.8908 60.7842C79.6348 59.8242 77.6668 58.5282 75.9868 56.8962C74.3548 55.2162 73.0588 53.2242 72.0988 50.9202C71.1868 48.6162 70.7308 46.0962 70.7308 43.3602C70.7308 40.6242 71.1868 38.1042 72.0988 35.8002C73.0588 33.4962 74.3548 31.5282 75.9868 29.8962C77.6668 28.2162 79.6348 26.9202 81.8908 26.0082C84.1948 25.0482 86.7148 24.5682 89.4508 24.5682ZM89.4508 53.4402C90.6508 53.4402 91.8028 53.2242 92.9068 52.7922C94.0588 52.3122 95.0668 51.6402 95.9308 50.7762C96.7948 49.9122 97.4668 48.8562 97.9468 47.6082C98.4748 46.3602 98.7388 44.9442 98.7388 43.3602C98.7388 41.7762 98.4748 40.3602 97.9468 39.1122C97.4668 37.8642 96.7948 36.8082 95.9308 35.9442C95.0668 35.0802 94.0588 34.4322 92.9068 34.0002C91.8028 33.5202 90.6508 33.2802 89.4508 33.2802C88.2028 33.2802 87.0268 33.5202 85.9228 34.0002C84.8188 34.4322 83.8348 35.0802 82.9708 35.9442C82.1068 36.8082 81.4108 37.8642 80.8828 39.1122C80.4028 40.3602 80.1628 41.7762 80.1628 43.3602C80.1628 44.9442 80.4028 46.3602 80.8828 47.6082C81.4108 48.8562 82.1068 49.9122 82.9708 50.7762C83.8348 51.6402 84.8188 52.3122 85.9228 52.7922C87.0268 53.2242 88.2028 53.4402 89.4508 53.4402Z" fill="url(#paint2_linear_126_2679)"/>
<path d="M141.375 61.7922L141.951 56.7522H141.375C140.511 58.2402 139.167 59.5122 137.343 60.5682C135.519 61.6242 133.263 62.1522 130.575 62.1522C128.319 62.1522 126.159 61.6962 124.095 60.7842C122.079 59.8242 120.279 58.5282 118.695 56.8962C117.159 55.2162 115.935 53.2242 115.023 50.9202C114.111 48.6162 113.655 46.0962 113.655 43.3602C113.655 40.6242 114.111 38.1042 115.023 35.8002C115.935 33.4962 117.159 31.5282 118.695 29.8962C120.279 28.2162 122.079 26.9202 124.095 26.0082C126.159 25.0482 128.319 24.5682 130.575 24.5682C133.263 24.5682 135.519 25.0962 137.343 26.1522C139.167 27.2082 140.511 28.4802 141.375 29.9682H141.951V28.9202C141.951 27.8001 141.951 27.2401 142.169 26.8122C142.361 26.4359 142.667 26.1299 143.043 25.9382C143.471 25.7202 144.031 25.7202 145.151 25.7202H147.607C148.727 25.7202 149.287 25.7202 149.715 25.9382C150.092 26.1299 150.397 26.4359 150.589 26.8122C150.807 27.2401 150.807 27.8001 150.807 28.9202V73.3522C150.807 74.4723 150.807 75.0324 150.589 75.4602C150.397 75.8365 150.092 76.1425 149.715 76.3342C149.287 76.5522 148.727 76.5522 147.607 76.5522H144.575C143.455 76.5522 142.895 76.5522 142.467 76.3342C142.091 76.1425 141.785 75.8365 141.593 75.4602C141.375 75.0324 141.375 74.4723 141.375 73.3522V61.7922ZM132.519 53.4402C133.767 53.4402 134.943 53.2242 136.047 52.7922C137.199 52.3122 138.207 51.6402 139.071 50.7762C139.935 49.9122 140.631 48.8562 141.159 47.6082C141.687 46.3602 141.951 44.9442 141.951 43.3602C141.951 41.7762 141.687 40.3602 141.159 39.1122C140.631 37.8642 139.935 36.8082 139.071 35.9442C138.207 35.0802 137.199 34.4322 136.047 34.0002C134.943 33.5202 133.767 33.2802 132.519 33.2802C131.271 33.2802 130.071 33.5202 128.919 34.0002C127.815 34.4802 126.831 35.1522 125.967 36.0162C125.103 36.8802 124.407 37.9362 123.879 39.1842C123.351 40.4322 123.087 41.8242 123.087 43.3602C123.087 44.8962 123.351 46.2882 123.879 47.5362C124.407 48.7842 125.103 49.8402 125.967 50.7042C126.831 51.5682 127.815 52.2402 128.919 52.7202C130.071 53.2002 131.271 53.4402 132.519 53.4402Z" fill="url(#paint3_linear_126_2679)"/>
<path d="M165.258 20.6082C164.442 20.6082 163.65 20.4642 162.882 20.1762C162.162 19.8402 161.514 19.4082 160.938 18.8802C160.41 18.3042 159.978 17.6562 159.642 16.9362C159.354 16.2162 159.21 15.4242 159.21 14.5602C159.21 13.6962 159.354 12.9042 159.642 12.1842C159.978 11.4642 160.41 10.8402 160.938 10.3122C161.514 9.73621 162.162 9.30421 162.882 9.0162C163.65 8.68021 164.442 8.51221 165.258 8.51221C166.938 8.51221 168.378 9.11221 169.578 10.3122C170.778 11.4642 171.378 12.8802 171.378 14.5602C171.378 16.2402 170.778 17.6802 169.578 18.8802C168.378 20.0322 166.938 20.6082 165.258 20.6082ZM163.778 61.0002C162.658 61.0002 162.098 61.0002 161.67 60.7822C161.294 60.5905 160.988 60.2845 160.796 59.9082C160.578 59.4804 160.578 58.9203 160.578 57.8002V28.9202C160.578 27.8001 160.578 27.2401 160.796 26.8122C160.988 26.4359 161.294 26.1299 161.67 25.9382C162.098 25.7202 162.658 25.7202 163.778 25.7202H166.81C167.93 25.7202 168.49 25.7202 168.918 25.9382C169.294 26.1299 169.6 26.4359 169.792 26.8122C170.01 27.2401 170.01 27.8001 170.01 28.9202V57.8002C170.01 58.9203 170.01 59.4804 169.792 59.9082C169.6 60.2845 169.294 60.5905 168.918 60.7822C168.49 61.0002 167.93 61.0002 166.81 61.0002H163.778Z" fill="url(#paint4_linear_126_2679)"/>
</g>
<mask id="path-2-inside-1_126_2679" fill="white">
<path d="M8.58136 12.6482C8.58136 11.5281 8.58136 10.9681 8.79935 10.5402C8.99109 10.1639 9.29705 9.85794 9.67338 9.66619C10.1012 9.44821 10.6613 9.44821 11.7814 9.44821H28.7414C30.9494 9.44821 33.0134 9.80821 34.9334 10.5282C36.8534 11.2002 38.5094 12.1602 39.9014 13.4082C41.3414 14.6082 42.4694 16.0242 43.2854 17.6562C44.1014 19.2882 44.5094 21.0402 44.5094 22.9122C44.5094 25.6482 43.8374 27.9522 42.4934 29.8242C41.1974 31.6482 39.5654 33.0402 37.5974 34.0002V34.5762C40.2374 35.5362 42.3494 37.0482 43.9334 39.1122C45.5654 41.1282 46.3814 43.6482 46.3814 46.6722C46.3814 48.8802 45.9254 50.8722 45.0134 52.6482C44.1494 54.3762 42.9494 55.8642 41.4134 57.1122C39.8774 58.3602 38.0774 59.3202 36.0134 59.9922C33.9974 60.6642 31.8134 61.0002 29.4614 61.0002H11.7814C10.6613 61.0002 10.1012 61.0002 9.67338 60.7822C9.29705 60.5905 8.99109 60.2845 8.79935 59.9082C8.58136 59.4804 8.58136 58.9203 8.58136 57.8002V12.6482ZM28.0214 30.4722C30.2774 30.4722 32.0054 29.8722 33.2054 28.6722C34.4534 27.4242 35.0774 25.9602 35.0774 24.2802C35.0774 22.6002 34.4774 21.1602 33.2774 19.9602C32.0774 18.7602 30.4214 18.1602 28.3094 18.1602H18.3014V30.4722H28.0214ZM29.1014 52.0722C31.5494 52.0722 33.4214 51.4722 34.7174 50.2722C36.0134 49.0242 36.6614 47.4402 36.6614 45.5202C36.6614 43.6002 35.9894 42.0162 34.6454 40.7682C33.3494 39.4722 31.4054 38.8242 28.8134 38.8242H18.3014V52.0722H29.1014Z"/>
<path d="M57.3506 61.0002C56.2305 61.0002 55.6705 61.0002 55.2426 60.7822C54.8663 60.5905 54.5603 60.2845 54.3686 59.9082C54.1506 59.4804 54.1506 58.9203 54.1506 57.8002V12.6482C54.1506 11.5281 54.1506 10.9681 54.3686 10.5402C54.5603 10.1639 54.8663 9.85794 55.2426 9.66619C55.6705 9.44821 56.2305 9.44821 57.3506 9.44821H60.3826C61.5027 9.44821 62.0628 9.44821 62.4906 9.66619C62.8669 9.85794 63.1729 10.1639 63.3646 10.5402C63.5826 10.9681 63.5826 11.5281 63.5826 12.6482V57.8002C63.5826 58.9203 63.5826 59.4804 63.3646 59.9082C63.1729 60.2845 62.8669 60.5905 62.4906 60.7822C62.0628 61.0002 61.5027 61.0002 60.3826 61.0002H57.3506Z"/>
<path d="M89.4509 24.5682C92.1869 24.5682 94.6829 25.0482 96.9389 26.0082C99.2429 26.9202 101.211 28.2162 102.843 29.8962C104.523 31.5282 105.819 33.4962 106.731 35.8002C107.691 38.1042 108.171 40.6242 108.171 43.3602C108.171 46.0962 107.691 48.6162 106.731 50.9202C105.819 53.2242 104.523 55.2162 102.843 56.8962C101.211 58.5282 99.2429 59.8242 96.9389 60.7842C94.6829 61.6962 92.1869 62.1522 89.4509 62.1522C86.7149 62.1522 84.1949 61.6962 81.8909 60.7842C79.6349 59.8242 77.6669 58.5282 75.9869 56.8962C74.3549 55.2162 73.0589 53.2242 72.0989 50.9202C71.1869 48.6162 70.7309 46.0962 70.7309 43.3602C70.7309 40.6242 71.1869 38.1042 72.0989 35.8002C73.0589 33.4962 74.3549 31.5282 75.9869 29.8962C77.6669 28.2162 79.6349 26.9202 81.8909 26.0082C84.1949 25.0482 86.7149 24.5682 89.4509 24.5682ZM89.4509 53.4402C90.6509 53.4402 91.8029 53.2242 92.9069 52.7922C94.0589 52.3122 95.0669 51.6402 95.9309 50.7762C96.7949 49.9122 97.4669 48.8562 97.9469 47.6082C98.4749 46.3602 98.7389 44.9442 98.7389 43.3602C98.7389 41.7762 98.4749 40.3602 97.9469 39.1122C97.4669 37.8642 96.7949 36.8082 95.9309 35.9442C95.0669 35.0802 94.0589 34.4322 92.9069 34.0002C91.8029 33.5202 90.6509 33.2802 89.4509 33.2802C88.2029 33.2802 87.0269 33.5202 85.9229 34.0002C84.8189 34.4322 83.8349 35.0802 82.9709 35.9442C82.1069 36.8082 81.4109 37.8642 80.8829 39.1122C80.4029 40.3602 80.1629 41.7762 80.1629 43.3602C80.1629 44.9442 80.4029 46.3602 80.8829 47.6082C81.4109 48.8562 82.1069 49.9122 82.9709 50.7762C83.8349 51.6402 84.8189 52.3122 85.9229 52.7922C87.0269 53.2242 88.2029 53.4402 89.4509 53.4402Z"/>
<path d="M141.375 61.7922L141.951 56.7522H141.375C140.511 58.2402 139.167 59.5122 137.343 60.5682C135.519 61.6242 133.263 62.1522 130.575 62.1522C128.319 62.1522 126.159 61.6962 124.095 60.7842C122.079 59.8242 120.279 58.5282 118.695 56.8962C117.159 55.2162 115.935 53.2242 115.023 50.9202C114.111 48.6162 113.655 46.0962 113.655 43.3602C113.655 40.6242 114.111 38.1042 115.023 35.8002C115.935 33.4962 117.159 31.5282 118.695 29.8962C120.279 28.2162 122.079 26.9202 124.095 26.0082C126.159 25.0482 128.319 24.5682 130.575 24.5682C133.263 24.5682 135.519 25.0962 137.343 26.1522C139.167 27.2082 140.511 28.4802 141.375 29.9682H141.951V28.9202C141.951 27.8001 141.951 27.2401 142.169 26.8122C142.361 26.4359 142.667 26.1299 143.043 25.9382C143.471 25.7202 144.031 25.7202 145.151 25.7202H147.607C148.727 25.7202 149.287 25.7202 149.715 25.9382C150.092 26.1299 150.398 26.4359 150.589 26.8122C150.807 27.2401 150.807 27.8001 150.807 28.9202V73.3522C150.807 74.4723 150.807 75.0324 150.589 75.4602C150.398 75.8365 150.092 76.1425 149.715 76.3342C149.287 76.5522 148.727 76.5522 147.607 76.5522H144.575C143.455 76.5522 142.895 76.5522 142.467 76.3342C142.091 76.1425 141.785 75.8365 141.593 75.4602C141.375 75.0324 141.375 74.4723 141.375 73.3522V61.7922ZM132.519 53.4402C133.767 53.4402 134.943 53.2242 136.047 52.7922C137.199 52.3122 138.207 51.6402 139.071 50.7762C139.935 49.9122 140.631 48.8562 141.159 47.6082C141.687 46.3602 141.951 44.9442 141.951 43.3602C141.951 41.7762 141.687 40.3602 141.159 39.1122C140.631 37.8642 139.935 36.8082 139.071 35.9442C138.207 35.0802 137.199 34.4322 136.047 34.0002C134.943 33.5202 133.767 33.2802 132.519 33.2802C131.271 33.2802 130.071 33.5202 128.919 34.0002C127.815 34.4802 126.831 35.1522 125.967 36.0162C125.103 36.8802 124.407 37.9362 123.879 39.1842C123.351 40.4322 123.087 41.8242 123.087 43.3602C123.087 44.8962 123.351 46.2882 123.879 47.5362C124.407 48.7842 125.103 49.8402 125.967 50.7042C126.831 51.5682 127.815 52.2402 128.919 52.7202C130.071 53.2002 131.271 53.4402 132.519 53.4402Z"/>
<path d="M165.258 20.6082C164.442 20.6082 163.65 20.4642 162.882 20.1762C162.162 19.8402 161.514 19.4082 160.938 18.8802C160.41 18.3042 159.978 17.6562 159.642 16.9362C159.354 16.2162 159.21 15.4242 159.21 14.5602C159.21 13.6962 159.354 12.9042 159.642 12.1842C159.978 11.4642 160.41 10.8402 160.938 10.3122C161.514 9.73621 162.162 9.30421 162.882 9.0162C163.65 8.68021 164.442 8.51221 165.258 8.51221C166.938 8.51221 168.378 9.11221 169.578 10.3122C170.778 11.4642 171.378 12.8802 171.378 14.5602C171.378 16.2402 170.778 17.6802 169.578 18.8802C168.378 20.0322 166.938 20.6082 165.258 20.6082ZM163.778 61.0002C162.658 61.0002 162.098 61.0002 161.67 60.7822C161.294 60.5905 160.988 60.2845 160.796 59.9082C160.578 59.4804 160.578 58.9203 160.578 57.8002V28.9202C160.578 27.8001 160.578 27.2401 160.796 26.8122C160.988 26.4359 161.294 26.1299 161.67 25.9382C162.098 25.7202 162.658 25.7202 163.778 25.7202H166.81C167.93 25.7202 168.49 25.7202 168.918 25.9382C169.294 26.1299 169.6 26.4359 169.792 26.8122C170.01 27.2401 170.01 27.8001 170.01 28.9202V57.8002C170.01 58.9203 170.01 59.4804 169.792 59.9082C169.6 60.2845 169.294 60.5905 168.918 60.7822C168.49 61.0002 167.93 61.0002 166.81 61.0002H163.778Z"/>
</mask>
<path d="M8.58136 12.6482C8.58136 11.5281 8.58136 10.9681 8.79935 10.5402C8.99109 10.1639 9.29705 9.85794 9.67338 9.66619C10.1012 9.44821 10.6613 9.44821 11.7814 9.44821H28.7414C30.9494 9.44821 33.0134 9.80821 34.9334 10.5282C36.8534 11.2002 38.5094 12.1602 39.9014 13.4082C41.3414 14.6082 42.4694 16.0242 43.2854 17.6562C44.1014 19.2882 44.5094 21.0402 44.5094 22.9122C44.5094 25.6482 43.8374 27.9522 42.4934 29.8242C41.1974 31.6482 39.5654 33.0402 37.5974 34.0002V34.5762C40.2374 35.5362 42.3494 37.0482 43.9334 39.1122C45.5654 41.1282 46.3814 43.6482 46.3814 46.6722C46.3814 48.8802 45.9254 50.8722 45.0134 52.6482C44.1494 54.3762 42.9494 55.8642 41.4134 57.1122C39.8774 58.3602 38.0774 59.3202 36.0134 59.9922C33.9974 60.6642 31.8134 61.0002 29.4614 61.0002H11.7814C10.6613 61.0002 10.1012 61.0002 9.67338 60.7822C9.29705 60.5905 8.99109 60.2845 8.79935 59.9082C8.58136 59.4804 8.58136 58.9203 8.58136 57.8002V12.6482ZM28.0214 30.4722C30.2774 30.4722 32.0054 29.8722 33.2054 28.6722C34.4534 27.4242 35.0774 25.9602 35.0774 24.2802C35.0774 22.6002 34.4774 21.1602 33.2774 19.9602C32.0774 18.7602 30.4214 18.1602 28.3094 18.1602H18.3014V30.4722H28.0214ZM29.1014 52.0722C31.5494 52.0722 33.4214 51.4722 34.7174 50.2722C36.0134 49.0242 36.6614 47.4402 36.6614 45.5202C36.6614 43.6002 35.9894 42.0162 34.6454 40.7682C33.3494 39.4722 31.4054 38.8242 28.8134 38.8242H18.3014V52.0722H29.1014Z" fill="url(#paint5_linear_126_2679)"/>
<path d="M57.3506 61.0002C56.2305 61.0002 55.6705 61.0002 55.2426 60.7822C54.8663 60.5905 54.5603 60.2845 54.3686 59.9082C54.1506 59.4804 54.1506 58.9203 54.1506 57.8002V12.6482C54.1506 11.5281 54.1506 10.9681 54.3686 10.5402C54.5603 10.1639 54.8663 9.85794 55.2426 9.66619C55.6705 9.44821 56.2305 9.44821 57.3506 9.44821H60.3826C61.5027 9.44821 62.0628 9.44821 62.4906 9.66619C62.8669 9.85794 63.1729 10.1639 63.3646 10.5402C63.5826 10.9681 63.5826 11.5281 63.5826 12.6482V57.8002C63.5826 58.9203 63.5826 59.4804 63.3646 59.9082C63.1729 60.2845 62.8669 60.5905 62.4906 60.7822C62.0628 61.0002 61.5027 61.0002 60.3826 61.0002H57.3506Z" fill="url(#paint6_linear_126_2679)"/>
<path d="M89.4509 24.5682C92.1869 24.5682 94.6829 25.0482 96.9389 26.0082C99.2429 26.9202 101.211 28.2162 102.843 29.8962C104.523 31.5282 105.819 33.4962 106.731 35.8002C107.691 38.1042 108.171 40.6242 108.171 43.3602C108.171 46.0962 107.691 48.6162 106.731 50.9202C105.819 53.2242 104.523 55.2162 102.843 56.8962C101.211 58.5282 99.2429 59.8242 96.9389 60.7842C94.6829 61.6962 92.1869 62.1522 89.4509 62.1522C86.7149 62.1522 84.1949 61.6962 81.8909 60.7842C79.6349 59.8242 77.6669 58.5282 75.9869 56.8962C74.3549 55.2162 73.0589 53.2242 72.0989 50.9202C71.1869 48.6162 70.7309 46.0962 70.7309 43.3602C70.7309 40.6242 71.1869 38.1042 72.0989 35.8002C73.0589 33.4962 74.3549 31.5282 75.9869 29.8962C77.6669 28.2162 79.6349 26.9202 81.8909 26.0082C84.1949 25.0482 86.7149 24.5682 89.4509 24.5682ZM89.4509 53.4402C90.6509 53.4402 91.8029 53.2242 92.9069 52.7922C94.0589 52.3122 95.0669 51.6402 95.9309 50.7762C96.7949 49.9122 97.4669 48.8562 97.9469 47.6082C98.4749 46.3602 98.7389 44.9442 98.7389 43.3602C98.7389 41.7762 98.4749 40.3602 97.9469 39.1122C97.4669 37.8642 96.7949 36.8082 95.9309 35.9442C95.0669 35.0802 94.0589 34.4322 92.9069 34.0002C91.8029 33.5202 90.6509 33.2802 89.4509 33.2802C88.2029 33.2802 87.0269 33.5202 85.9229 34.0002C84.8189 34.4322 83.8349 35.0802 82.9709 35.9442C82.1069 36.8082 81.4109 37.8642 80.8829 39.1122C80.4029 40.3602 80.1629 41.7762 80.1629 43.3602C80.1629 44.9442 80.4029 46.3602 80.8829 47.6082C81.4109 48.8562 82.1069 49.9122 82.9709 50.7762C83.8349 51.6402 84.8189 52.3122 85.9229 52.7922C87.0269 53.2242 88.2029 53.4402 89.4509 53.4402Z" fill="url(#paint7_linear_126_2679)"/>
<path d="M141.375 61.7922L141.951 56.7522H141.375C140.511 58.2402 139.167 59.5122 137.343 60.5682C135.519 61.6242 133.263 62.1522 130.575 62.1522C128.319 62.1522 126.159 61.6962 124.095 60.7842C122.079 59.8242 120.279 58.5282 118.695 56.8962C117.159 55.2162 115.935 53.2242 115.023 50.9202C114.111 48.6162 113.655 46.0962 113.655 43.3602C113.655 40.6242 114.111 38.1042 115.023 35.8002C115.935 33.4962 117.159 31.5282 118.695 29.8962C120.279 28.2162 122.079 26.9202 124.095 26.0082C126.159 25.0482 128.319 24.5682 130.575 24.5682C133.263 24.5682 135.519 25.0962 137.343 26.1522C139.167 27.2082 140.511 28.4802 141.375 29.9682H141.951V28.9202C141.951 27.8001 141.951 27.2401 142.169 26.8122C142.361 26.4359 142.667 26.1299 143.043 25.9382C143.471 25.7202 144.031 25.7202 145.151 25.7202H147.607C148.727 25.7202 149.287 25.7202 149.715 25.9382C150.092 26.1299 150.398 26.4359 150.589 26.8122C150.807 27.2401 150.807 27.8001 150.807 28.9202V73.3522C150.807 74.4723 150.807 75.0324 150.589 75.4602C150.398 75.8365 150.092 76.1425 149.715 76.3342C149.287 76.5522 148.727 76.5522 147.607 76.5522H144.575C143.455 76.5522 142.895 76.5522 142.467 76.3342C142.091 76.1425 141.785 75.8365 141.593 75.4602C141.375 75.0324 141.375 74.4723 141.375 73.3522V61.7922ZM132.519 53.4402C133.767 53.4402 134.943 53.2242 136.047 52.7922C137.199 52.3122 138.207 51.6402 139.071 50.7762C139.935 49.9122 140.631 48.8562 141.159 47.6082C141.687 46.3602 141.951 44.9442 141.951 43.3602C141.951 41.7762 141.687 40.3602 141.159 39.1122C140.631 37.8642 139.935 36.8082 139.071 35.9442C138.207 35.0802 137.199 34.4322 136.047 34.0002C134.943 33.5202 133.767 33.2802 132.519 33.2802C131.271 33.2802 130.071 33.5202 128.919 34.0002C127.815 34.4802 126.831 35.1522 125.967 36.0162C125.103 36.8802 124.407 37.9362 123.879 39.1842C123.351 40.4322 123.087 41.8242 123.087 43.3602C123.087 44.8962 123.351 46.2882 123.879 47.5362C124.407 48.7842 125.103 49.8402 125.967 50.7042C126.831 51.5682 127.815 52.2402 128.919 52.7202C130.071 53.2002 131.271 53.4402 132.519 53.4402Z" fill="url(#paint8_linear_126_2679)"/>
<path d="M165.258 20.6082C164.442 20.6082 163.65 20.4642 162.882 20.1762C162.162 19.8402 161.514 19.4082 160.938 18.8802C160.41 18.3042 159.978 17.6562 159.642 16.9362C159.354 16.2162 159.21 15.4242 159.21 14.5602C159.21 13.6962 159.354 12.9042 159.642 12.1842C159.978 11.4642 160.41 10.8402 160.938 10.3122C161.514 9.73621 162.162 9.30421 162.882 9.0162C163.65 8.68021 164.442 8.51221 165.258 8.51221C166.938 8.51221 168.378 9.11221 169.578 10.3122C170.778 11.4642 171.378 12.8802 171.378 14.5602C171.378 16.2402 170.778 17.6802 169.578 18.8802C168.378 20.0322 166.938 20.6082 165.258 20.6082ZM163.778 61.0002C162.658 61.0002 162.098 61.0002 161.67 60.7822C161.294 60.5905 160.988 60.2845 160.796 59.9082C160.578 59.4804 160.578 58.9203 160.578 57.8002V28.9202C160.578 27.8001 160.578 27.2401 160.796 26.8122C160.988 26.4359 161.294 26.1299 161.67 25.9382C162.098 25.7202 162.658 25.7202 163.778 25.7202H166.81C167.93 25.7202 168.49 25.7202 168.918 25.9382C169.294 26.1299 169.6 26.4359 169.792 26.8122C170.01 27.2401 170.01 27.8001 170.01 28.9202V57.8002C170.01 58.9203 170.01 59.4804 169.792 59.9082C169.6 60.2845 169.294 60.5905 168.918 60.7822C168.49 61.0002 167.93 61.0002 166.81 61.0002H163.778Z" fill="url(#paint9_linear_126_2679)"/>
<path d="M8.58136 12.6482C8.58136 11.5281 8.58136 10.9681 8.79935 10.5402C8.99109 10.1639 9.29705 9.85794 9.67338 9.66619C10.1012 9.44821 10.6613 9.44821 11.7814 9.44821H28.7414C30.9494 9.44821 33.0134 9.80821 34.9334 10.5282C36.8534 11.2002 38.5094 12.1602 39.9014 13.4082C41.3414 14.6082 42.4694 16.0242 43.2854 17.6562C44.1014 19.2882 44.5094 21.0402 44.5094 22.9122C44.5094 25.6482 43.8374 27.9522 42.4934 29.8242C41.1974 31.6482 39.5654 33.0402 37.5974 34.0002V34.5762C40.2374 35.5362 42.3494 37.0482 43.9334 39.1122C45.5654 41.1282 46.3814 43.6482 46.3814 46.6722C46.3814 48.8802 45.9254 50.8722 45.0134 52.6482C44.1494 54.3762 42.9494 55.8642 41.4134 57.1122C39.8774 58.3602 38.0774 59.3202 36.0134 59.9922C33.9974 60.6642 31.8134 61.0002 29.4614 61.0002H11.7814C10.6613 61.0002 10.1012 61.0002 9.67338 60.7822C9.29705 60.5905 8.99109 60.2845 8.79935 59.9082C8.58136 59.4804 8.58136 58.9203 8.58136 57.8002V12.6482ZM28.0214 30.4722C30.2774 30.4722 32.0054 29.8722 33.2054 28.6722C34.4534 27.4242 35.0774 25.9602 35.0774 24.2802C35.0774 22.6002 34.4774 21.1602 33.2774 19.9602C32.0774 18.7602 30.4214 18.1602 28.3094 18.1602H18.3014V30.4722H28.0214ZM29.1014 52.0722C31.5494 52.0722 33.4214 51.4722 34.7174 50.2722C36.0134 49.0242 36.6614 47.4402 36.6614 45.5202C36.6614 43.6002 35.9894 42.0162 34.6454 40.7682C33.3494 39.4722 31.4054 38.8242 28.8134 38.8242H18.3014V52.0722H29.1014Z" stroke="url(#paint10_linear_126_2679)" stroke-width="2" mask="url(#path-2-inside-1_126_2679)"/>
<path d="M57.3506 61.0002C56.2305 61.0002 55.6705 61.0002 55.2426 60.7822C54.8663 60.5905 54.5603 60.2845 54.3686 59.9082C54.1506 59.4804 54.1506 58.9203 54.1506 57.8002V12.6482C54.1506 11.5281 54.1506 10.9681 54.3686 10.5402C54.5603 10.1639 54.8663 9.85794 55.2426 9.66619C55.6705 9.44821 56.2305 9.44821 57.3506 9.44821H60.3826C61.5027 9.44821 62.0628 9.44821 62.4906 9.66619C62.8669 9.85794 63.1729 10.1639 63.3646 10.5402C63.5826 10.9681 63.5826 11.5281 63.5826 12.6482V57.8002C63.5826 58.9203 63.5826 59.4804 63.3646 59.9082C63.1729 60.2845 62.8669 60.5905 62.4906 60.7822C62.0628 61.0002 61.5027 61.0002 60.3826 61.0002H57.3506Z" stroke="url(#paint11_linear_126_2679)" stroke-width="2" mask="url(#path-2-inside-1_126_2679)"/>
<path d="M89.4509 24.5682C92.1869 24.5682 94.6829 25.0482 96.9389 26.0082C99.2429 26.9202 101.211 28.2162 102.843 29.8962C104.523 31.5282 105.819 33.4962 106.731 35.8002C107.691 38.1042 108.171 40.6242 108.171 43.3602C108.171 46.0962 107.691 48.6162 106.731 50.9202C105.819 53.2242 104.523 55.2162 102.843 56.8962C101.211 58.5282 99.2429 59.8242 96.9389 60.7842C94.6829 61.6962 92.1869 62.1522 89.4509 62.1522C86.7149 62.1522 84.1949 61.6962 81.8909 60.7842C79.6349 59.8242 77.6669 58.5282 75.9869 56.8962C74.3549 55.2162 73.0589 53.2242 72.0989 50.9202C71.1869 48.6162 70.7309 46.0962 70.7309 43.3602C70.7309 40.6242 71.1869 38.1042 72.0989 35.8002C73.0589 33.4962 74.3549 31.5282 75.9869 29.8962C77.6669 28.2162 79.6349 26.9202 81.8909 26.0082C84.1949 25.0482 86.7149 24.5682 89.4509 24.5682ZM89.4509 53.4402C90.6509 53.4402 91.8029 53.2242 92.9069 52.7922C94.0589 52.3122 95.0669 51.6402 95.9309 50.7762C96.7949 49.9122 97.4669 48.8562 97.9469 47.6082C98.4749 46.3602 98.7389 44.9442 98.7389 43.3602C98.7389 41.7762 98.4749 40.3602 97.9469 39.1122C97.4669 37.8642 96.7949 36.8082 95.9309 35.9442C95.0669 35.0802 94.0589 34.4322 92.9069 34.0002C91.8029 33.5202 90.6509 33.2802 89.4509 33.2802C88.2029 33.2802 87.0269 33.5202 85.9229 34.0002C84.8189 34.4322 83.8349 35.0802 82.9709 35.9442C82.1069 36.8082 81.4109 37.8642 80.8829 39.1122C80.4029 40.3602 80.1629 41.7762 80.1629 43.3602C80.1629 44.9442 80.4029 46.3602 80.8829 47.6082C81.4109 48.8562 82.1069 49.9122 82.9709 50.7762C83.8349 51.6402 84.8189 52.3122 85.9229 52.7922C87.0269 53.2242 88.2029 53.4402 89.4509 53.4402Z" stroke="url(#paint12_linear_126_2679)" stroke-width="2" mask="url(#path-2-inside-1_126_2679)"/>
<path d="M141.375 61.7922L141.951 56.7522H141.375C140.511 58.2402 139.167 59.5122 137.343 60.5682C135.519 61.6242 133.263 62.1522 130.575 62.1522C128.319 62.1522 126.159 61.6962 124.095 60.7842C122.079 59.8242 120.279 58.5282 118.695 56.8962C117.159 55.2162 115.935 53.2242 115.023 50.9202C114.111 48.6162 113.655 46.0962 113.655 43.3602C113.655 40.6242 114.111 38.1042 115.023 35.8002C115.935 33.4962 117.159 31.5282 118.695 29.8962C120.279 28.2162 122.079 26.9202 124.095 26.0082C126.159 25.0482 128.319 24.5682 130.575 24.5682C133.263 24.5682 135.519 25.0962 137.343 26.1522C139.167 27.2082 140.511 28.4802 141.375 29.9682H141.951V28.9202C141.951 27.8001 141.951 27.2401 142.169 26.8122C142.361 26.4359 142.667 26.1299 143.043 25.9382C143.471 25.7202 144.031 25.7202 145.151 25.7202H147.607C148.727 25.7202 149.287 25.7202 149.715 25.9382C150.092 26.1299 150.398 26.4359 150.589 26.8122C150.807 27.2401 150.807 27.8001 150.807 28.9202V73.3522C150.807 74.4723 150.807 75.0324 150.589 75.4602C150.398 75.8365 150.092 76.1425 149.715 76.3342C149.287 76.5522 148.727 76.5522 147.607 76.5522H144.575C143.455 76.5522 142.895 76.5522 142.467 76.3342C142.091 76.1425 141.785 75.8365 141.593 75.4602C141.375 75.0324 141.375 74.4723 141.375 73.3522V61.7922ZM132.519 53.4402C133.767 53.4402 134.943 53.2242 136.047 52.7922C137.199 52.3122 138.207 51.6402 139.071 50.7762C139.935 49.9122 140.631 48.8562 141.159 47.6082C141.687 46.3602 141.951 44.9442 141.951 43.3602C141.951 41.7762 141.687 40.3602 141.159 39.1122C140.631 37.8642 139.935 36.8082 139.071 35.9442C138.207 35.0802 137.199 34.4322 136.047 34.0002C134.943 33.5202 133.767 33.2802 132.519 33.2802C131.271 33.2802 130.071 33.5202 128.919 34.0002C127.815 34.4802 126.831 35.1522 125.967 36.0162C125.103 36.8802 124.407 37.9362 123.879 39.1842C123.351 40.4322 123.087 41.8242 123.087 43.3602C123.087 44.8962 123.351 46.2882 123.879 47.5362C124.407 48.7842 125.103 49.8402 125.967 50.7042C126.831 51.5682 127.815 52.2402 128.919 52.7202C130.071 53.2002 131.271 53.4402 132.519 53.4402Z" stroke="url(#paint13_linear_126_2679)" stroke-width="2" mask="url(#path-2-inside-1_126_2679)"/>
<path d="M165.258 20.6082C164.442 20.6082 163.65 20.4642 162.882 20.1762C162.162 19.8402 161.514 19.4082 160.938 18.8802C160.41 18.3042 159.978 17.6562 159.642 16.9362C159.354 16.2162 159.21 15.4242 159.21 14.5602C159.21 13.6962 159.354 12.9042 159.642 12.1842C159.978 11.4642 160.41 10.8402 160.938 10.3122C161.514 9.73621 162.162 9.30421 162.882 9.0162C163.65 8.68021 164.442 8.51221 165.258 8.51221C166.938 8.51221 168.378 9.11221 169.578 10.3122C170.778 11.4642 171.378 12.8802 171.378 14.5602C171.378 16.2402 170.778 17.6802 169.578 18.8802C168.378 20.0322 166.938 20.6082 165.258 20.6082ZM163.778 61.0002C162.658 61.0002 162.098 61.0002 161.67 60.7822C161.294 60.5905 160.988 60.2845 160.796 59.9082C160.578 59.4804 160.578 58.9203 160.578 57.8002V28.9202C160.578 27.8001 160.578 27.2401 160.796 26.8122C160.988 26.4359 161.294 26.1299 161.67 25.9382C162.098 25.7202 162.658 25.7202 163.778 25.7202H166.81C167.93 25.7202 168.49 25.7202 168.918 25.9382C169.294 26.1299 169.6 26.4359 169.792 26.8122C170.01 27.2401 170.01 27.8001 170.01 28.9202V57.8002C170.01 58.9203 170.01 59.4804 169.792 59.9082C169.6 60.2845 169.294 60.5905 168.918 60.7822C168.49 61.0002 167.93 61.0002 166.81 61.0002H163.778Z" stroke="url(#paint14_linear_126_2679)" stroke-width="2" mask="url(#path-2-inside-1_126_2679)"/>
</g>
<defs>
<filter id="filter0_f_126_2679" x="0.581345" y="0.512207" width="178.797" height="84.04" filterUnits="userSpaceOnUse" color-interpolation-filters="sRGB">
<feFlood flood-opacity="0" result="BackgroundImageFix"/>
<feBlend mode="normal" in="SourceGraphic" in2="BackgroundImageFix" result="shape"/>
<feGaussianBlur stdDeviation="4" result="effect1_foregroundBlur_126_2679"/>
</filter>
<linearGradient id="paint0_linear_126_2679" x1="89.9796" y1="8.51221" x2="89.9796" y2="76.5522" gradientUnits="userSpaceOnUse">
<stop stop-color="white"/>
<stop offset="1" stop-color="white" stop-opacity="0"/>
</linearGradient>
<linearGradient id="paint1_linear_126_2679" x1="89.9796" y1="8.51221" x2="89.9796" y2="76.5522" gradientUnits="userSpaceOnUse">
<stop stop-color="white"/>
<stop offset="1" stop-color="white" stop-opacity="0"/>
</linearGradient>
<linearGradient id="paint2_linear_126_2679" x1="89.9796" y1="8.51221" x2="89.9796" y2="76.5522" gradientUnits="userSpaceOnUse">
<stop stop-color="white"/>
<stop offset="1" stop-color="white" stop-opacity="0"/>
</linearGradient>
<linearGradient id="paint3_linear_126_2679" x1="89.9796" y1="8.51221" x2="89.9796" y2="76.5522" gradientUnits="userSpaceOnUse">
<stop stop-color="white"/>
<stop offset="1" stop-color="white" stop-opacity="0"/>
</linearGradient>
<linearGradient id="paint4_linear_126_2679" x1="89.9796" y1="8.51221" x2="89.9796" y2="76.5522" gradientUnits="userSpaceOnUse">
<stop stop-color="white"/>
<stop offset="1" stop-color="white" stop-opacity="0"/>
</linearGradient>
<linearGradient id="paint5_linear_126_2679" x1="89.9796" y1="8.51221" x2="89.9796" y2="76.5522" gradientUnits="userSpaceOnUse">
<stop stop-color="white"/>
<stop offset="1" stop-color="#808080"/>
</linearGradient>
<linearGradient id="paint6_linear_126_2679" x1="89.9796" y1="8.51221" x2="89.9796" y2="76.5522" gradientUnits="userSpaceOnUse">
<stop stop-color="white"/>
<stop offset="1" stop-color="#808080"/>
</linearGradient>
<linearGradient id="paint7_linear_126_2679" x1="89.9796" y1="8.51221" x2="89.9796" y2="76.5522" gradientUnits="userSpaceOnUse">
<stop stop-color="white"/>
<stop offset="1" stop-color="#808080"/>
</linearGradient>
<linearGradient id="paint8_linear_126_2679" x1="89.9796" y1="8.51221" x2="89.9796" y2="76.5522" gradientUnits="userSpaceOnUse">
<stop stop-color="white"/>
<stop offset="1" stop-color="#808080"/>
</linearGradient>
<linearGradient id="paint9_linear_126_2679" x1="89.9796" y1="8.51221" x2="89.9796" y2="76.5522" gradientUnits="userSpaceOnUse">
<stop stop-color="white"/>
<stop offset="1" stop-color="#808080"/>
</linearGradient>
<linearGradient id="paint10_linear_126_2679" x1="89.9796" y1="8.51221" x2="90" y2="60.5" gradientUnits="userSpaceOnUse">
<stop stop-color="white"/>
<stop offset="1" stop-color="white" stop-opacity="0"/>
</linearGradient>
<linearGradient id="paint11_linear_126_2679" x1="89.9796" y1="8.51221" x2="90" y2="60.5" gradientUnits="userSpaceOnUse">
<stop stop-color="white"/>
<stop offset="1" stop-color="white" stop-opacity="0"/>
</linearGradient>
<linearGradient id="paint12_linear_126_2679" x1="89.9796" y1="8.51221" x2="90" y2="60.5" gradientUnits="userSpaceOnUse">
<stop stop-color="white"/>
<stop offset="1" stop-color="white" stop-opacity="0"/>
</linearGradient>
<linearGradient id="paint13_linear_126_2679" x1="89.9796" y1="8.51221" x2="90" y2="60.5" gradientUnits="userSpaceOnUse">
<stop stop-color="white"/>
<stop offset="1" stop-color="white" stop-opacity="0"/>
</linearGradient>
<linearGradient id="paint14_linear_126_2679" x1="89.9796" y1="8.51221" x2="90" y2="60.5" gradientUnits="userSpaceOnUse">
<stop stop-color="white"/>
<stop offset="1" stop-color="white" stop-opacity="0"/>
</linearGradient>
<clipPath id="clip0_126_2679">
<rect width="180" height="80" fill="white"/>
</clipPath>
</defs>
</svg>
